<?xml version="1.0" encoding="UTF-8" standalone="no"?>
<svg
   width="48"
   height="48"
   viewBox="0 0 48 48"
   version="1.1"
   id="svg4"
   sodipodi:docname="arrow-forward-starred.svg"
   inkscape:version="1.1.2 (0a00cf5339, 2022-02-04)"
   xmlns:inkscape="http://www.inkscape.org/namespaces/inkscape"
   xmlns:sodipodi="http://sodipodi.sourceforge.net/DTD/sodipodi-0.dtd"
   xmlns:xlink="http://www.w3.org/1999/xlink"
   xmlns="http://www.w3.org/2000/svg"
   xmlns:svg="http://www.w3.org/2000/svg">
  <defs
     id="defs8">
    <linearGradient
       inkscape:collect="always"
       xlink:href="#linearGradient5426"
       id="linearGradient5428"
       x1="10.075769"
       y1="12.421616"
       x2="1.4262868"
       y2="-0.16991392"
       gradientUnits="userSpaceOnUse"
       gradientTransform="matrix(-2.7764976,0,0,2.7764976,48.130759,-0.14832096)" />
    <linearGradient
       inkscape:collect="always"
       id="linearGradient5426">
      <stop
         style="stop-color:#ffd42a;stop-opacity:1;"
         offset="0"
         id="stop5422" />
      <stop
         style="stop-color:#ffd42a;stop-opacity:0;"
         offset="1"
         id="stop5424" />
    </linearGradient>
  </defs>
  <sodipodi:namedview
     id="namedview6"
     pagecolor="#ffffff"
     bordercolor="#666666"
     borderopacity="1.0"
     inkscape:pageshadow="2"
     inkscape:pageopacity="0.0"
     inkscape:pagecheckerboard="0"
     showgrid="false"
     inkscape:zoom="7.4895833"
     inkscape:cx="10.94854"
     inkscape:cy="30.842837"
     inkscape:window-width="1834"
     inkscape:window-height="1122"
     inkscape:window-x="2006"
     inkscape:window-y="41"
     inkscape:window-maximized="1"
     inkscape:current-layer="svg4" />
  <path
     style="display:inline;fill:url(#linearGradient5428);fill-opacity:1;fill-rule:evenodd;stroke:#806600;stroke-width:0.734613;stroke-miterlimit:4;stroke-dasharray:none;stroke-opacity:1"
     id="path446"
     d="M 30.499998,0.86445958 25.327703,11.884013 13.7621,13.651082 l 8.368952,8.577522 -1.975639,12.111659 10.344588,-5.718349 10.344592,5.718349 -1.975642,-12.111659 8.36895,-8.577522 -11.565605,-1.767069 z" />
  <path
     d="m 1.86107,31.59043 h 20.788136 l -9.082015,-9.319958 c -0.725816,-0.744834 -0.725816,-1.967123 0,-2.711955 a 1.8536245,1.9021881 0 0 1 2.624106,0 l 12.264445,12.585761 a 1.8536245,1.9021881 0 0 1 0,2.692857 L 16.20991,47.441995 a 1.8555243,1.9041378 0 1 1 -2.624108,-2.692857 l 9.063404,-9.339057 H 1.86107 C 0.837481,35.410081 0,34.550661 0,33.500257 0,32.44985 0.837481,31.59043 1.86107,31.59043 Z"
     id="path2"
     style="stroke-width:1.88529" />
</svg>
