<?xml version="1.0" encoding="UTF-8" standalone="no"?>
<svg
   width="48"
   height="48"
   viewBox="0 0 48 48"
   version="1.1"
   id="svg4"
   sodipodi:docname="arrow-backward-starred.svg"
   inkscape:version="1.1.2 (0a00cf5339, 2022-02-04)"
   xmlns:inkscape="http://www.inkscape.org/namespaces/inkscape"
   xmlns:sodipodi="http://sodipodi.sourceforge.net/DTD/sodipodi-0.dtd"
   xmlns:xlink="http://www.w3.org/1999/xlink"
   xmlns="http://www.w3.org/2000/svg"
   xmlns:svg="http://www.w3.org/2000/svg">
  <defs
     id="defs8">
    <linearGradient
       inkscape:collect="always"
       xlink:href="#linearGradient5426"
       id="linearGradient5428"
       x1="10.075769"
       y1="12.421616"
       x2="1.4262868"
       y2="-0.16991392"
       gradientUnits="userSpaceOnUse"
       gradientTransform="matrix(2.7764976,0,0,2.7764976,-0.13075776,-0.14832096)" />
    <linearGradient
       inkscape:collect="always"
       id="linearGradient5426">
      <stop
         style="stop-color:#ffd42a;stop-opacity:1;"
         offset="0"
         id="stop5422" />
      <stop
         style="stop-color:#ffd42a;stop-opacity:0;"
         offset="1"
         id="stop5424" />
    </linearGradient>
  </defs>
  <sodipodi:namedview
     id="namedview6"
     pagecolor="#ffffff"
     bordercolor="#666666"
     borderopacity="1.0"
     inkscape:pageshadow="2"
     inkscape:pageopacity="0.0"
     inkscape:pagecheckerboard="0"
     showgrid="false"
     inkscape:zoom="7.4895833"
     inkscape:cx="10.94854"
     inkscape:cy="30.842837"
     inkscape:window-width="1834"
     inkscape:window-height="1122"
     inkscape:window-x="2006"
     inkscape:window-y="41"
     inkscape:window-maximized="1"
     inkscape:current-layer="svg4" />
  <path
     style="display:inline;fill:url(#linearGradient5428);fill-opacity:1;fill-rule:evenodd;stroke:#806600;stroke-width:0.734613;stroke-miterlimit:4;stroke-dasharray:none;stroke-opacity:1"
     id="path446"
     d="M 17.500003,0.86445958 22.672298,11.884013 34.237901,13.651082 25.868949,22.228604 27.844588,34.340263 17.5,28.621914 7.1554084,34.340263 9.1310496,22.228604 0.76209974,13.651082 12.327705,11.884013 Z" />
  <path
     d="M 46.138931,31.59043 H 25.350795 l 9.082015,-9.319958 c 0.725816,-0.744834 0.725816,-1.967123 0,-2.711955 a 1.8536245,1.9021881 0 0 0 -2.624106,0 L 19.544259,32.144278 a 1.8536245,1.9021881 0 0 0 0,2.692857 l 12.245832,12.60486 a 1.8555243,1.9041378 0 1 0 2.624108,-2.692857 l -9.063404,-9.339057 h 20.788136 c 1.023589,0 1.86107,-0.85942 1.86107,-1.909824 0,-1.050407 -0.837481,-1.909827 -1.86107,-1.909827 z"
     id="path2"
     style="stroke-width:1.88529" />
</svg>
